:FULLY-SPECIFIED
:FORCE-ALL-JOINTS-BE-3DOF
:DEGREES
501
root 10.606 16.8996 34.085 5.8045 4.89498 4.94282
lfemur 19.55 1.11536 -27.6288
ltibia 6.67916e-014 0 0
lfoot -16.4645 3.67914 0
ltoes -2.83666 0 0
rfemur -42.2692 8.86303 11.2049
rtibia 27.7865 0 0
rfoot -24.5665 -13.2811 0
rtoes -26.2908 0 0
lowerback -7.39946 -5.27569 -5.8512
upperback 0.448675 -6.59756 1.65975
thorax 5.47475 -3.45239 4.16708
lowerneck -23.718 -2.84942 -10.4961
upperneck 24.3261 -3.35799 11.0611
head 12.3646 -1.01768 5.44639
lclavicle 1.01728e-013 -3.97569e-015 0
lhumerus -15.9899 -24.4937 88.7512
lradius 35.6328 0 0
lwrist 7.58736 0 0
lhand -12.3209 -25.9232 0
lfingers 7.12502 0 0
lthumb 13.7478 3.60266 0
rclavicle 1.01728e-013 -3.97569e-015 0
rhumerus -49.4955 5.30406 -83.2878
rradius 32.2851 0 0
rwrist -16.4153 0 0
rhand -29.4472 -20.4875 0
rfingers 7.12502 0 0
rthumb -2.78357 -50.4491 0
502
root 10.5916 16.8555 34.2767 5.8585 4.80303 5.44843
lfemur 20.2765 1.11331 -28.0177
ltibia 1.27222e-014 0 0
lfoot -16.5811 3.17427 0
ltoes -1.20035 0 0
rfemur -42.1015 7.76496 11.4503
rtibia 28.5001 0 0
rfoot -24.5665 -13.2811 0
rtoes -26.2908 0 0
lowerback -7.61284 -5.25006 -6.20486
upperback 0.500366 -6.5047 1.42874
thorax 5.65139 -3.4168 4.11304
lowerneck -23.7472 -2.82471 -10.2485
upperneck 24.0684 -3.33949 10.8749
head 12.2581 -1.00694 5.31968
lclavicle -7.16619e-014 -1.43125e-014 0
lhumerus -16.8477 -25.2655 89.2453
lradius 35.4642 0 0
lwrist 7.98139 0 0
lhand -11.0579 -25.6415 0
lfingers 7.12502 0 0
lthumb 14.9647 3.79789 0
rclavicle -7.16619e-014 -1.43125e-014 0
rhumerus -49.5494 4.74409 -83.0345
rradius 31.7913 0 0
rwrist -15.9074 0 0
rhand -28.8581 -20.1609 0
rfingers 7.12502 0 0
rthumb -2.21465 -50.1292 0
503
root 10.5627 16.822 34.4469 5.77236 4.70368 5.89035
lfemur 20.9115 1.13927 -28.3013
ltibia 1.59028e-014 0 0
lfoot -16.2044 3.18276 0
ltoes -1.27802 0 0
rfemur -42.088 7.2778 11.5453
rtibia 29.3185 0 0
rfoot -24.5665 -13.2811 0
rtoes -26.2908 0 0
lowerback -7.30348 -5.2899 -6.76585
upperback 0.467025 -6.52174 1.29115
thorax 5.49237 -3.43496 4.30447
lowerneck -23.6802 -2.58928 -9.74969
upperneck 23.7945 -3.08755 10.5644
head 12.0897 -0.886872 5.13894
lclavicle -3.47873e-014 -1.59028e-014 0
lhumerus -17.9606 -25.9713 89.8984
lradius 34.6779 0 0
lwrist 6.21924 0 0
lhand -13.0934 -26.5298 0
lfingers 7.12502 0 0
lthumb 13.0032 3.04499 0
rclavicle -3.47873e-014 -1.59028e-014 0
rhumerus -49.4852 4.63011 -83.0168
rradius 30.9148 0 0
rwrist -15.6413 0 0
rhand -28.9057 -22.2807 0
rfingers 7.12502 0 0
rthumb -2.26065 -52.2484 0
504
root 10.5333 16.8132 34.6196 5.78171 4.77871 5.72101
lfemur 21.4534 1.03377 -27.9764
ltibia -6.04305e-014 0 0
lfoot -15.6492 3.92295 0
ltoes -5.86666 0 0
rfemur -42.284 6.80957 12.2585
rtibia 30.3788 0 0
rfoot -24.5665 -13.2811 0
rtoes -26.2908 0 0
lowerback -7.11977 -5.29678 -6.63216
upperback 0.36474 -6.56047 1.34573
thorax 5.27661 -3.44365 4.30398
lowerneck -23.7094 -2.63616 -9.95594
upperneck 23.7116 -3.16383 10.8927
head 12.0834 -0.896529 5.28811
lclavicle -3.51352e-014 7.15625e-015 0
lhumerus -18.5085 -25.0496 90.1897
lradius 34.7058 0 0
lwrist 7.78479 0 0
lhand -13.9088 -26.6147 0
lfingers 7.12502 0 0
lthumb 12.2171 3.00853 0
rclavicle -3.51352e-014 7.15625e-015 0
rhumerus -49.5862 4.33149 -82.8604
rradius 30.1708 0 0
rwrist -15.2606 0 0
rhand -29.248 -24.8762 0
rfingers 7.12502 0 0
rthumb -2.59123 -54.8402 0
505
root 10.5045 16.8204 34.8124 6.08648 5.03204 4.71665
lfemur 21.7933 0.766176 -26.7169
ltibia 0 0 0
lfoot -15.1608 4.26908 0
ltoes -9.52164 0 0
rfemur -42.6668 6.3535 13.7218
rtibia 31.228 0 0
rfoot -24.5665 -13.2811 0
rtoes -26.2908 0 0
lowerback -7.5571 -5.2966 -5.54246
upperback 0.245892 -6.64484 1.64502
thorax 5.31684 -3.4579 3.9713
lowerneck -23.612 -2.72521 -10.3467
upperneck 23.4508 -3.26025 11.3313
head 11.9922 -0.920213 5.49939
lclavicle 5.45664e-014 -1.11319e-014 0
lhumerus -19.2118 -25.3373 90.664
lradius 34.3462 0 0
lwrist 8.21855 0 0
lhand -12.9857 -26.6163 0
lfingers 7.12502 0 0
lthumb 13.107 2.95184 0
rclavicle 5.45664e-014 -1.11319e-014 0
rhumerus -49.7588 3.79117 -82.4656
rradius 29.6645 0 0
rwrist -14.6055 0 0
rhand -28.3209 -26.6156 0
rfingers 7.12502 0 0
rthumb -1.6958 -56.5886 0
506
root 10.4765 16.8093 34.9859 5.93492 4.98494 5.30097
lfemur 22.5866 0.727713 -27.1496
ltibia 4.45278e-014 0 0
lfoot -14.6012 4.20151 0
ltoes -10.7147 0 0
rfemur -42.7033 5.83435 13.4868
rtibia 32.1611 0 0
rfoot -24.5665 -13.2811 0
rtoes -26.2908 0 0
lowerback -7.11252 -5.218 -6.16985
upperback 0.149335 -6.50757 1.52612
thorax 5.00651 -3.39636 4.25757
lowerneck -23.6866 -2.91775 -10.456
upperneck 23.2929 -3.47018 11.3174
head 11.9764 -1.02331 5.47074
lclavicle 4.34344e-014 4.77083e-015 0
lhumerus -20.3044 -26.2615 91.6176
lradius 33.4622 0 0
lwrist 5.71889 0 0
lhand -12.0132 -25.773 0
lfingers 7.12502 0 0
lthumb 14.0443 3.73247 0
rclavicle 4.34344e-014 4.77083e-015 0
rhumerus -50.0655 3.35893 -81.9829
rradius 29.3855 0 0
rwrist -14.2596 0 0
rhand -26.5366 -27.4121 0
rfingers 7.12502 0 0
rthumb 0.0274694 -57.3919 0
